<?xml version="1.0" encoding="UTF-8"?>
<!DOCTYPE svg PUBLIC "-//W3C//DTD SVG 1.1//EN" "http://www.w3.org/Graphics/SVG/1.1/DTD/svg11.dtd">
<svg xmlns="http://www.w3.org/2000/svg" version="1.1" width="512px" height="1024px" style="shape-rendering:geometricPrecision; text-rendering:geometricPrecision; image-rendering:optimizeQuality; fill-rule:evenodd; clip-rule:evenodd" xmlns:xlink="http://www.w3.org/1999/xlink">
<g><path style="opacity:0.926" fill="#000000" d="M -0.5,530.5 C -0.5,516.167 -0.5,501.833 -0.5,487.5C 6.305,470.934 18.305,465.434 35.5,471C 37.5,472.333 39.5,473.667 41.5,475C 43.7043,478.028 46.0376,480.862 48.5,483.5C 57.4788,481.338 66.4788,479.338 75.5,477.5C 78.8632,456.244 85.5298,436.077 95.5,417C 92.3615,412.574 88.8615,408.407 85,404.5C 70.5593,411.558 59.226,408.225 51,394.5C 48.1123,385.462 49.4457,377.129 55,369.5C 60.5173,362.322 66.3506,355.489 72.5,349C 88.7519,341.758 100.252,346.258 107,362.5C 107.498,365.817 107.665,369.15 107.5,372.5C 113.143,374.66 118.81,376.493 124.5,378C 136.182,366.31 149.016,356.144 163,347.5C 162.327,338.12 160.993,328.787 159,319.5C 145.79,321.392 136.79,316.058 132,303.5C 129.429,292.499 132.595,283.665 141.5,277C 154.198,271.212 167.198,266.212 180.5,262C 196.484,261.145 205.817,268.645 208.5,284.5C 208.253,291.75 205.586,297.917 200.5,303C 206.369,310.571 211.869,318.404 217,326.5C 229.284,324.007 241.617,322.007 254,320.5C 255.068,317.129 256.235,313.796 257.5,310.5C 245.321,299.772 242.821,287.105 250,272.5C 255.921,264.124 264.087,259.79 274.5,259.5C 283.613,259.966 292.28,262.133 300.5,266C 313.065,276.178 315.898,288.678 309,303.5C 305.992,307.674 302.492,311.341 298.5,314.5C 299.312,318.806 299.979,323.139 300.5,327.5C 316.463,330.649 331.463,336.316 345.5,344.5C 352.977,338.857 360.311,333.024 367.5,327C 360.068,317.279 359.568,307.112 366,296.5C 376.525,285.997 388.025,284.831 400.5,293C 410.291,300.456 419.791,308.289 429,316.5C 436.118,328.902 434.618,340.069 424.5,350C 421.785,351.908 418.785,353.241 415.5,354C 410.996,354.34 406.663,354.507 402.5,354.5C 398.736,362.625 395.07,370.791 391.5,379C 395.404,383.719 395.404,388.386 391.5,393C 388.167,395 384.833,395 381.5,393C 376.985,389.991 374.319,385.825 373.5,380.5C 379.053,367.06 384.886,353.726 391,340.5C 395.49,333.558 400.99,332.725 407.5,338C 413.248,339.126 416.581,336.792 417.5,331C 417.297,328.594 416.297,326.594 414.5,325C 405.45,317.615 396.116,310.615 386.5,304C 378.636,304.214 376.136,308.047 379,315.5C 381.946,317.956 384.613,320.623 387,323.5C 387.402,324.872 387.902,326.205 388.5,327.5C 387.902,328.795 387.402,330.128 387,331.5C 376.778,340.69 366.278,349.523 355.5,358C 351.702,361.186 347.368,362.186 342.5,361C 326.23,351.577 308.897,344.91 290.5,341C 287.619,339.749 285.786,337.583 285,334.5C 284.048,325.589 282.881,316.755 281.5,308C 282.056,305.763 283.056,303.763 284.5,302C 294.426,299.303 297.926,293.136 295,283.5C 293.127,281.291 290.96,279.458 288.5,278C 283.6,277.285 278.767,276.452 274,275.5C 263.07,278.049 259.737,284.383 264,294.5C 267.158,297.08 270.492,299.413 274,301.5C 274.923,303.034 275.423,304.701 275.5,306.5C 273.264,317.126 269.264,326.96 263.5,336C 247.301,337.643 231.134,339.81 215,342.5C 211.479,342.917 208.479,341.917 206,339.5C 197.419,327.339 189.086,315.006 181,302.5C 180.516,300.087 180.85,297.754 182,295.5C 185.362,293.65 188.362,291.317 191,288.5C 192.529,281.369 189.696,277.869 182.5,278C 172.088,281.804 161.755,285.804 151.5,290C 146.636,294.035 146.302,298.368 150.5,303C 151.729,303.781 153.062,304.281 154.5,304.5C 159.556,301.883 164.889,301.049 170.5,302C 171.701,302.903 172.535,304.069 173,305.5C 175.685,320.296 178.185,335.129 180.5,350C 180.182,354.323 178.182,357.657 174.5,360C 158.012,369.261 143.345,380.927 130.5,395C 128.645,395.422 126.811,395.922 125,396.5C 113.995,392.414 103.162,387.914 92.5,383C 90.5559,381.278 89.5559,379.111 89.5,376.5C 91.0875,372.976 91.5875,369.309 91,365.5C 88.4689,361.798 85.3022,360.965 81.5,363C 75.1616,369.83 69.8283,377.33 65.5,385.5C 66.1087,389.276 68.2754,391.609 72,392.5C 75.7301,390.776 78.8968,388.276 81.5,385C 84.1667,384.333 86.8333,384.333 89.5,385C 97.3719,393.203 104.872,401.703 112,410.5C 112.704,412.278 113.204,414.112 113.5,416C 108.811,427.213 103.978,438.379 99,449.5C 94.9833,461.583 91.9833,473.916 90,486.5C 88.7494,489.381 86.5827,491.214 83.5,492C 69.3586,495.295 55.192,498.462 41,501.5C 37.9666,501.481 35.6333,500.148 34,497.5C 33.3844,487.852 28.551,484.019 19.5,486C 17.9512,487.214 16.7845,488.714 16,490.5C 15.3333,502.5 15.3333,514.5 16,526.5C 21.1564,533.102 26.4897,533.102 32,526.5C 32.3333,523.167 32.6667,519.833 33,516.5C 33.3459,514.152 34.5125,512.319 36.5,511C 39.8333,510.333 43.1667,510.333 46.5,511C 59.1667,514 71.8333,517 84.5,520C 88.1655,521.668 90.3322,524.501 91,528.5C 91.8982,533.491 92.7315,538.491 93.5,543.5C 92.7812,551.24 88.7812,553.74 81.5,551C 79.9512,549.786 78.7845,548.286 78,546.5C 77.3597,542.277 76.193,538.277 74.5,534.5C 66.5409,532.374 58.5409,530.374 50.5,528.5C 49.5581,528.608 48.7247,528.941 48,529.5C 42.7877,543.696 32.621,549.529 17.5,547C 8.71947,544.381 2.71947,538.881 -0.5,530.5 Z"/></g>
<g><path style="opacity:0.898" fill="#000000" d="M 266.5,372.5 C 272.509,372.334 278.509,372.501 284.5,373C 289.833,377.667 289.833,382.333 284.5,387C 278.5,389 272.5,389 266.5,387C 261.402,382.226 261.402,377.393 266.5,372.5 Z"/></g>
<g><path style="opacity:0.924" fill="#000000" d="M 196.5,385.5 C 221.421,381.836 239.921,390.836 252,412.5C 258.066,430.46 256.066,447.46 246,463.5C 238.405,467.722 233.572,465.722 231.5,457.5C 233.664,452.505 235.83,447.505 238,442.5C 242.579,422.149 235.079,408.649 215.5,402C 188.523,399.995 170.023,411.495 160,436.5C 155.305,464.472 167.138,478.305 195.5,478C 202.783,476.739 209.783,474.572 216.5,471.5C 225.254,474.773 226.587,479.939 220.5,487C 201.964,496.504 183.298,496.838 164.5,488C 143.292,472.695 137.125,452.528 146,427.5C 156.068,405.257 172.902,391.257 196.5,385.5 Z"/></g>
<g><path style="opacity:0.927" fill="#000000" d="M 511.5,522.5 C 511.5,527.5 511.5,532.5 511.5,537.5C 508.958,548.362 506.458,559.362 504,570.5C 497.323,583.061 487.157,587.228 473.5,583C 465.373,579.902 460.706,574.069 459.5,565.5C 449.812,565.543 440.145,566.043 430.5,567C 426.86,576.783 422.527,586.283 417.5,595.5C 420.643,599.811 423.977,603.978 427.5,608C 440.451,603.874 451.618,606.707 461,616.5C 467.904,626.964 468.237,637.63 462,648.5C 455.877,659.562 446.544,665.895 434,667.5C 417.179,665.68 408.179,656.346 407,639.5C 401.799,636.9 396.466,634.567 391,632.5C 379.494,644.01 366.827,654.01 353,662.5C 354.101,671.115 355.435,679.782 357,688.5C 379.361,689.221 388.361,700.555 384,722.5C 381.55,727.284 378.05,731.117 373.5,734C 362.5,738.333 351.5,742.667 340.5,747C 327.438,750.384 317.605,746.218 311,734.5C 307.656,724.364 309.489,715.364 316.5,707.5C 311.044,700.088 305.711,692.588 300.5,685C 286.137,687.273 271.637,688.773 257,689.5C 246.613,689.009 236.28,688.009 226,686.5C 224.893,686.585 223.893,686.919 223,687.5C 217.874,696.255 212.374,704.755 206.5,713C 216.739,723.426 219.239,735.593 214,749.5C 210.456,758.196 203.956,762.863 194.5,763.5C 179.463,759.432 164.797,754.265 150.5,748C 134.614,733.079 134.614,718.079 150.5,703C 155.497,700.301 160.83,698.801 166.5,698.5C 167.353,689.158 168.353,679.825 169.5,670.5C 169.167,669.167 168.833,667.833 168.5,666.5C 151.817,657.659 136.984,646.325 124,632.5C 115.548,636.262 107.048,639.929 98.5,643.5C 99.3764,656.893 93.3764,665.726 80.5,670C 69.7647,671.978 60.9313,668.812 54,660.5C 48.902,653.97 44.5686,646.97 41,639.5C 38.3411,617.831 47.8411,607.331 69.5,608C 72.2646,608.743 74.9313,609.41 77.5,610C 83.1667,603.667 88.8333,597.333 94.5,591C 91.1987,585.899 88.8654,580.399 87.5,574.5C 87.8646,569.632 90.5312,566.966 95.5,566.5C 98.01,566.833 100.177,567.833 102,569.5C 105,575.5 108,581.5 111,587.5C 111.837,591.295 111.504,594.961 110,598.5C 101.203,608.965 92.0367,619.132 82.5,629C 80.6354,630.301 78.6354,630.635 76.5,630C 72.905,627.403 69.0716,625.237 65,623.5C 56.8729,625.289 54.5396,629.956 58,637.5C 61.4676,642.934 65.301,648.101 69.5,653C 74.8201,655.702 78.9867,654.535 82,649.5C 82.4525,645.823 82.2858,642.156 81.5,638.5C 81.4035,636.074 82.0702,633.907 83.5,632C 97.3065,625.511 111.473,620.011 126,615.5C 127.967,615.542 129.801,616.042 131.5,617C 146.925,633.284 164.425,646.784 184,657.5C 185.404,659.639 186.237,661.972 186.5,664.5C 184.703,679.837 182.87,695.171 181,710.5C 179.651,714.182 176.985,716.182 173,716.5C 163.63,712.935 157.464,715.935 154.5,725.5C 155.043,729.552 157.043,732.718 160.5,735C 170.423,738.863 180.423,742.53 190.5,746C 193.099,746.769 195.599,746.602 198,745.5C 203.347,734.215 200.347,726.215 189,721.5C 187.543,718.634 187.21,715.634 188,712.5C 196.381,698.124 205.548,684.29 215.5,671C 217.423,670.192 219.423,669.692 221.5,669.5C 248.478,675.119 275.311,674.453 302,667.5C 304.732,667.615 307.232,668.448 309.5,670C 318,681.833 326.5,693.667 335,705.5C 337,708.5 337,711.5 335,714.5C 331.638,716.35 328.638,718.683 326,721.5C 324.584,727.339 326.75,731.006 332.5,732.5C 343.947,728.295 355.28,723.795 366.5,719C 370.769,714.291 370.436,709.958 365.5,706C 363.5,705.333 361.5,705.333 359.5,706C 354.109,709.405 348.942,709.238 344,705.5C 340.14,689.015 337.807,672.348 337,655.5C 338.122,653.376 339.622,651.543 341.5,650C 357.237,640.941 371.237,629.608 383.5,616C 386.077,614.75 388.743,614.416 391.5,615C 401.733,618.783 411.733,623.116 421.5,628C 423.297,629.594 424.297,631.594 424.5,634C 421.827,643.161 424.994,648.995 434,651.5C 437.463,650.712 440.463,649.046 443,646.5C 446.17,642.51 448.67,638.177 450.5,633.5C 449.819,626.819 446.152,623.152 439.5,622.5C 435.963,622.935 432.963,624.435 430.5,627C 427.366,627.79 424.366,627.457 421.5,626C 414.667,617.833 407.833,609.667 401,601.5C 400.333,598.167 400.333,594.833 401,591.5C 407.821,579.708 413.487,567.375 418,554.5C 419.8,552.683 421.966,551.516 424.5,551C 439.198,550.089 453.864,549.423 468.5,549C 474.497,550.994 476.497,554.994 474.5,561C 477.647,569.384 482.481,570.55 489,564.5C 492.304,551.99 494.304,539.323 495,526.5C 491.93,522.293 488.097,521.46 483.5,524C 481.296,528.666 479.463,533.5 478,538.5C 474.744,540.429 471.244,540.929 467.5,540C 456.833,535.333 446.167,530.667 435.5,526C 431.726,524.698 428.559,522.531 426,519.5C 425.678,498.755 423.178,478.255 418.5,458C 418.494,455.7 418.994,453.534 420,451.5C 428.436,444.366 437.603,438.366 447.5,433.5C 451.758,433.925 454.758,436.091 456.5,440C 467.564,445.055 473.398,441.555 474,429.5C 471.725,422.674 469.058,416.007 466,409.5C 456.376,402.73 450.209,405.063 447.5,416.5C 449.303,421.106 448.637,425.273 445.5,429C 434.06,432.221 422.394,433.555 410.5,433C 405.187,427.33 401.021,420.83 398,413.5C 398.35,405.158 402.517,402.325 410.5,405C 413.373,408.577 415.873,412.411 418,416.5C 418.725,417.059 419.558,417.392 420.5,417.5C 423.865,416.925 427.198,416.258 430.5,415.5C 435.849,392.826 449.516,385.326 471.5,393C 476.774,396.274 480.608,400.774 483,406.5C 485.534,413.102 487.867,419.769 490,426.5C 492.006,442.329 485.506,452.829 470.5,458C 461.444,459.85 453.277,458.017 446,452.5C 442.842,455.08 439.508,457.413 436,459.5C 439.058,476.308 440.892,493.308 441.5,510.5C 449.623,514.312 457.789,517.979 466,521.5C 471.616,509.281 481.116,504.448 494.5,507C 502.919,509.256 508.585,514.423 511.5,522.5 Z M 155.5,572.5 C 164.91,570.751 170.243,574.584 171.5,584C 168.453,594.508 162.12,597.341 152.5,592.5C 146.471,584.726 147.471,578.06 155.5,572.5 Z M 277.5,617.5 C 286.9,619.631 290.067,625.298 287,634.5C 281,641.167 275,641.167 269,634.5C 265.492,625.515 268.326,619.848 277.5,617.5 Z"/></g>
<g><path style="opacity:0.925" fill="#000000" d="M 325.5,390.5 C 336.888,388.799 347.222,391.299 356.5,398C 369.833,412 369.833,426 356.5,440C 341.116,449.994 325.783,449.994 310.5,440C 297.167,426 297.167,412 310.5,398C 315.152,394.628 320.152,392.128 325.5,390.5 Z M 328.5,406.5 C 339.429,404.787 346.762,408.954 350.5,419C 347.865,427.118 342.198,431.284 333.5,431.5C 322.911,431.734 317.411,426.734 317,416.5C 319.194,411.171 323.027,407.838 328.5,406.5 Z"/></g>
<g><path style="opacity:0.869" fill="#000000" d="M 295.5,481.5 C 300.628,481.112 305.628,481.612 310.5,483C 314.809,488.42 314.142,493.086 308.5,497C 303.382,497.888 298.382,497.555 293.5,496C 289.128,490.408 289.794,485.575 295.5,481.5 Z"/></g>
<g><path style="opacity:0.894" fill="#000000" d="M 137.5,503.5 C 142.297,503.121 146.964,503.621 151.5,505C 154.394,507.909 155.227,511.409 154,515.5C 152.786,517.049 151.286,518.215 149.5,519C 144.713,519.879 140.047,519.545 135.5,518C 131.054,512.397 131.721,507.564 137.5,503.5 Z"/></g>
<g><path style="opacity:0.926" fill="#000000" d="M 344.5,506.5 C 367.806,506.639 378.306,518.306 376,541.5C 370.623,556.201 360.123,562.701 344.5,561C 327.19,555.99 320.023,544.49 323,526.5C 326.526,515.804 333.693,509.137 344.5,506.5 Z M 347.5,522.5 C 359.161,523.488 362.995,529.488 359,540.5C 353.288,546.677 347.288,547.01 341,541.5C 336.417,532.694 338.584,526.361 347.5,522.5 Z"/></g>
<g><path style="opacity:0.925" fill="#000000" d="M 235.5,513.5 C 261.223,511.069 275.89,522.569 279.5,548C 277.028,569.139 265.194,580.972 244,583.5C 220.278,580.727 208.612,567.394 209,543.5C 212.055,528.285 220.888,518.285 235.5,513.5 Z M 238.5,529.5 C 257.486,528.983 264.986,537.983 261,556.5C 253.073,568.108 243.239,570.108 231.5,562.5C 221.018,548.763 223.351,537.763 238.5,529.5 Z"/></g>
<g><path style="opacity:0.928" fill="#000000" d="M 159.5,555.5 C 181.078,558.643 189.911,570.977 186,592.5C 178.538,609.216 166.038,614.716 148.5,609C 135.317,602.167 130.15,591.334 133,576.5C 137.359,563.622 146.192,556.622 159.5,555.5 Z M 155.5,572.5 C 147.471,578.06 146.471,584.726 152.5,592.5C 162.12,597.341 168.453,594.508 171.5,584C 170.243,574.584 164.91,570.751 155.5,572.5 Z"/></g>
<g><path style="opacity:0.891" fill="#000000" d="M 327.5,588.5 C 333.621,588.09 339.621,588.59 345.5,590C 349.809,595.42 349.142,600.086 343.5,604C 337.388,604.909 331.388,604.576 325.5,603C 321.054,597.397 321.721,592.564 327.5,588.5 Z"/></g>
<g><path style="opacity:0.927" fill="#000000" d="M 275.5,601.5 C 296.796,602.962 306.296,614.295 304,635.5C 298.526,650.824 287.692,657.324 271.5,655C 258.805,650.793 251.805,641.96 250.5,628.5C 252.361,613.311 260.695,604.311 275.5,601.5 Z M 277.5,617.5 C 268.326,619.848 265.492,625.515 269,634.5C 275,641.167 281,641.167 287,634.5C 290.067,625.298 286.9,619.631 277.5,617.5 Z"/></g>
<g><path style="opacity:0.893" fill="#000000" d="M 209.5,612.5 C 214.364,612.001 218.864,613.001 223,615.5C 225.101,619.451 224.934,623.284 222.5,627C 216.947,628.57 211.281,628.903 205.5,628C 199.793,620.959 201.127,615.793 209.5,612.5 Z"/></g>
</svg>
